<svg xmlns="http://www.w3.org/2000/svg" width="197" height="197" fill="none"><g clip-path="url(#a)"><path fill="#000" d="M98.5 197c54.4 0 98.5-44.1 98.5-98.5S152.9 0 98.5 0 0 44.1 0 98.5 44.1 197 98.5 197Z"/><path fill="#fff" d="M147.39 74.43c2.87 9.18 5.14 18.62 6.93 28.18.88 4.78 1.65 9.58 2.33 14.4 1.78 12.58 2.37 35.83-14.95 37.83-12.41 1.5-23.45-11.35-28.81-21.03-1.86-3.12-3.06-5.49-4.43-8.24-2.61-5.3-4.82-10.5-7.08-15.27-.12-.25-.25-.51-.37-.76.44 2.12.93 4.21 1.33 6.34.95 5.02 2.05 10.39 2.61 15.92.55 5.21.77 10.65.34 16.23a66.98 66.98 0 0 1-1.14 8.44c-2.98 16.37-18.33 30.85-34.58 18.78-7.98-5.93-13.52-15.12-17.8-23.91-13.84-28.42-17.11-62.23-21.09-93.19-.4-3.14-.82-7.56.55-10.1 1.59-3.04 4.7-2.6 6.25-2.35 19.18 3 19.59 29.13 21.65 43.74 1.4 9.86 3.05 19.69 5.42 29.37 1.58 6.44 7.31 40.38 17.17 37.69.85-.23 1.48-.98 1.8-1.8 1.69-4.37 1.87-10.01 1.97-14.65.28-8.82-1.14-18.24-1.82-28.44-.79-10.01-1.51-20.01-2.09-30-.31-4.33-1.46-13.68 1.08-16.41 1.1-1.98 3.36-2.51 4.61-2.77 5.23-1.01 12.11 1.46 18.23 7.03 15 13.62 15.02 34.07 25.2 50.41 5.39 8.65 5.15.95 4.39-5.11-1.19-9.47-2.98-19.28-5.01-28.34-4.02-17.96-9.42-35.6-15.73-52.87-1.67-4.56-6.93-15.02-1.83-16.29 1.88-.46 4.33 1.58 6.14 3.28 6.94 6.62 12.68 16.53 17.34 25.79 4.53 8.95 8.35 18.34 11.41 28.12l-.02-.02Zm-7.33-31.04s16.141 51.89 21.86 56.55c4.75 3.87-2.339-18.95-4.869-26.79-.54-1.67-1.2-3.3-1.991-4.87-4.03-8.03-17.24-34.13-16.61-29.77l1.621 4.88h-.011ZM30.54 76.96s-1.52-24.6-3.12-27.29c-1.34-2.24-.67 8.58-.41 12.31.06.8.16 1.58.31 2.36.76 3.98 3.28 16.93 3.4 14.95l-.18-2.33Z"/></g><defs><clipPath id="a"><path fill="#fff" d="M0 0h197v197H0z"/></clipPath></defs></svg>